<svg xmlns="http://www.w3.org/2000/svg" viewBox="0 0 1600 900" preserveAspectRatio="xMidYMid slice"><defs>
<linearGradient id="bg" x1="0" y1="0" x2="0" y2="1"><stop offset="0" stop-color="#9ed2ea"/><stop offset=".45" stop-color="#d9ecd8"/><stop offset=".62" stop-color="#ffe3a4"/><stop offset=".68" stop-color="#ffc98a"/></linearGradient>
<radialGradient id="sun"><stop offset="0" stop-color="#fffbe6"/><stop offset=".25" stop-color="#fff0b8" stop-opacity=".9"/><stop offset="1" stop-color="#ffd27a" stop-opacity="0"/></radialGradient>
<linearGradient id="levee" x1="0" y1="0" x2="0" y2="1"><stop offset="0" stop-color="#9cc47e"/><stop offset="1" stop-color="#5f9152"/></linearGradient>
<linearGradient id="river" x1="0" y1="0" x2="0" y2="1"><stop offset="0" stop-color="#7cb8d6"/><stop offset="1" stop-color="#2f6f98"/></linearGradient>
</defs><rect width="1600" height="900" fill="url(#bg)"/>
<circle cx="1190" cy="560" r="330" fill="url(#sun)"/>
<circle cx="1190" cy="560" r="78" fill="#fffaf0"/>
<path d="M0 560 C 180 470, 330 480, 480 540 S 760 460, 940 520 S 1300 470, 1600 520 L1600 900 L0 900Z" fill="#b9cfd6" opacity=".8"/>
<path d="M0 600 C 220 540, 420 560, 640 590 S 1100 540, 1600 580 L1600 900 L0 900Z" fill="#a7c3b4" opacity=".85"/>
<rect x="20" y="545" width="90" height="95" fill="#e9c4a0"/>
<polygon points="14,546 65.0,516.2 116,546" fill="#c9854f"/>
<rect x="38" y="574" width="16" height="24" fill="#9fc3d6"/>
<rect x="124" y="545" width="110" height="95" fill="#efcfa6"/>
<polygon points="118,546 179.0,509.8 240,546" fill="#d9776b"/>
<rect x="146" y="574" width="20" height="24" fill="#9fc3d6"/>
<rect x="258" y="585" width="90" height="55" fill="#f3d9b8"/>
<polygon points="252,586 303.0,556.2 354,586" fill="#d9776b"/>
<rect x="276" y="602" width="16" height="14" fill="#9fc3d6"/>
<rect x="388" y="545" width="90" height="95" fill="#efcfa6"/>
<polygon points="382,546 433.0,516.2 484,546" fill="#d9776b"/>
<rect x="406" y="574" width="16" height="24" fill="#9fc3d6"/>
<rect x="518" y="600" width="70" height="40" fill="#f3d9b8"/>
<polygon points="512,601 553.0,577.6 594,601" fill="#c9854f"/>
<rect x="532" y="612" width="13" height="10" fill="#9fc3d6"/>
<rect x="602" y="600" width="110" height="40" fill="#e9c4a0"/>
<polygon points="596,601 657.0,564.8 718,601" fill="#7c9fbd"/>
<rect x="624" y="612" width="20" height="10" fill="#9fc3d6"/>
<rect x="736" y="585" width="110" height="55" fill="#efcfa6"/>
<polygon points="730,586 791.0,549.8 852,586" fill="#7c9fbd"/>
<rect x="758" y="602" width="20" height="14" fill="#9fc3d6"/>
<rect x="870" y="600" width="70" height="40" fill="#e9c4a0"/>
<polygon points="864,601 905.0,577.6 946,601" fill="#7c9fbd"/>
<rect x="884" y="612" width="13" height="10" fill="#9fc3d6"/>
<rect x="964" y="600" width="110" height="40" fill="#f7e4c7"/>
<polygon points="958,601 1019.0,564.8 1080,601" fill="#7c9fbd"/>
<rect x="986" y="612" width="20" height="10" fill="#9fc3d6"/>
<rect x="1088" y="570" width="110" height="70" fill="#f3d9b8"/>
<polygon points="1082,571 1143.0,534.8 1204,571" fill="#d9776b"/>
<rect x="1110" y="591" width="20" height="18" fill="#9fc3d6"/>
<rect x="1238" y="545" width="70" height="95" fill="#f3d9b8"/>
<polygon points="1232,546 1273.0,522.6 1314,546" fill="#7c9fbd"/>
<rect x="1252" y="574" width="13" height="24" fill="#9fc3d6"/>
<rect x="1332" y="600" width="70" height="40" fill="#f3d9b8"/>
<polygon points="1326,601 1367.0,577.6 1408,601" fill="#c9854f"/>
<rect x="1346" y="612" width="13" height="10" fill="#9fc3d6"/>
<rect x="1416" y="545" width="70" height="95" fill="#e9c4a0"/>
<polygon points="1410,546 1451.0,522.6 1492,546" fill="#b86c5c"/>
<rect x="1430" y="574" width="13" height="24" fill="#9fc3d6"/>
<rect x="1510" y="585" width="70" height="55" fill="#f7e4c7"/>
<polygon points="1504,586 1545.0,562.6 1586,586" fill="#7c9fbd"/>
<rect x="1524" y="602" width="13" height="14" fill="#9fc3d6"/>
<rect x="1594" y="570" width="90" height="70" fill="#f3d9b8"/>
<polygon points="1588,571 1639.0,541.2 1690,571" fill="#b86c5c"/>
<rect x="1612" y="591" width="16" height="18" fill="#9fc3d6"/>
<path d="M0 668 L1600 668 L1600 770 L0 770Z" fill="url(#levee)"/>
<rect y="652" width="1600" height="18" fill="#e8dcc0"/>
<rect y="650" width="1600" height="4" fill="#cdbd9c"/>
<rect y="770" width="1600" height="130" fill="url(#river)"/>
<rect x="1070" y="786" width="240" height="4" rx="2" fill="#fff4c8" opacity="0.80"/>
<rect x="1079" y="798" width="222" height="4" rx="2" fill="#fff4c8" opacity="0.73"/>
<rect x="1088" y="810" width="204" height="4" rx="2" fill="#fff4c8" opacity="0.66"/>
<rect x="1097" y="822" width="186" height="4" rx="2" fill="#fff4c8" opacity="0.59"/>
<rect x="1106" y="834" width="168" height="4" rx="2" fill="#fff4c8" opacity="0.52"/>
<rect x="1115" y="846" width="150" height="4" rx="2" fill="#fff4c8" opacity="0.45"/>
<rect x="1124" y="858" width="132" height="4" rx="2" fill="#fff4c8" opacity="0.38"/>
<rect x="1133" y="870" width="114" height="4" rx="2" fill="#fff4c8" opacity="0.31"/>
<rect x="1142" y="882" width="96" height="4" rx="2" fill="#fff4c8" opacity="0.24"/>
<rect x="215" y="861" width="20" height="2.5" rx="1" fill="#e7f5fb" opacity=".45"/>
<rect x="744" y="839" width="47" height="2.5" rx="1" fill="#e7f5fb" opacity=".45"/>
<rect x="301" y="841" width="59" height="2.5" rx="1" fill="#e7f5fb" opacity=".45"/>
<rect x="1231" y="832" width="35" height="2.5" rx="1" fill="#e7f5fb" opacity=".45"/>
<rect x="632" y="889" width="20" height="2.5" rx="1" fill="#e7f5fb" opacity=".45"/>
<rect x="1383" y="887" width="44" height="2.5" rx="1" fill="#e7f5fb" opacity=".45"/>
<rect x="1597" y="792" width="27" height="2.5" rx="1" fill="#e7f5fb" opacity=".45"/>
<rect x="1593" y="850" width="43" height="2.5" rx="1" fill="#e7f5fb" opacity=".45"/>
<rect x="67" y="805" width="38" height="2.5" rx="1" fill="#e7f5fb" opacity=".45"/>
<rect x="15" y="851" width="53" height="2.5" rx="1" fill="#e7f5fb" opacity=".45"/>
<rect x="618" y="797" width="28" height="2.5" rx="1" fill="#e7f5fb" opacity=".45"/>
<rect x="1019" y="792" width="35" height="2.5" rx="1" fill="#e7f5fb" opacity=".45"/>
<rect x="995" y="803" width="43" height="2.5" rx="1" fill="#e7f5fb" opacity=".45"/>
<rect x="1332" y="804" width="35" height="2.5" rx="1" fill="#e7f5fb" opacity=".45"/>
<rect x="1004" y="821" width="29" height="2.5" rx="1" fill="#e7f5fb" opacity=".45"/>
<rect x="977" y="863" width="26" height="2.5" rx="1" fill="#e7f5fb" opacity=".45"/>
<rect x="1006" y="845" width="47" height="2.5" rx="1" fill="#e7f5fb" opacity=".45"/>
<rect x="621" y="838" width="23" height="2.5" rx="1" fill="#e7f5fb" opacity=".45"/>
<rect x="76" y="801" width="40" height="2.5" rx="1" fill="#e7f5fb" opacity=".45"/>
<rect x="408" y="864" width="36" height="2.5" rx="1" fill="#e7f5fb" opacity=".45"/>
<rect x="673" y="880" width="40" height="2.5" rx="1" fill="#e7f5fb" opacity=".45"/>
<rect x="832" y="883" width="59" height="2.5" rx="1" fill="#e7f5fb" opacity=".45"/>
<rect x="202" y="838" width="46" height="2.5" rx="1" fill="#e7f5fb" opacity=".45"/>
<rect x="985" y="797" width="28" height="2.5" rx="1" fill="#e7f5fb" opacity=".45"/>
<rect x="1464" y="865" width="23" height="2.5" rx="1" fill="#e7f5fb" opacity=".45"/>
<rect x="658" y="815" width="22" height="2.5" rx="1" fill="#e7f5fb" opacity=".45"/>
<g fill="#3b2a22" stroke="#3b2a22" stroke-linecap="round" stroke-linejoin="round">
<circle cx="300.0" cy="554.0" r="12.0"/>
<rect x="286.8" y="566.0" width="26.4" height="48.0" rx="10.0"/>
<line x1="294.6" y1="611.6" x2="280.8" y2="662.0" stroke-width="9.0"/>
<line x1="305.4" y1="611.6" x2="316.8" y2="654.8" stroke-width="9.0"/>
<line x1="288.9" y1="572.0" x2="273.6" y2="596.0" stroke-width="7.2"/>
<line x1="311.1" y1="572.0" x2="331.2" y2="590.0" stroke-width="7.2"/>
</g>
<g fill="#3b2a22" stroke="#3b2a22" stroke-linecap="round" stroke-linejoin="round">
<circle cx="560.0" cy="549.5" r="12.5"/>
<rect x="546.2" y="562.0" width="27.5" height="50.0" rx="10.4"/>
<line x1="554.4" y1="609.5" x2="552.5" y2="662.0" stroke-width="9.4"/>
<line x1="565.6" y1="609.5" x2="567.5" y2="662.0" stroke-width="9.4"/>
<line x1="548.5" y1="568.2" x2="545.0" y2="624.5" stroke-width="7.5"/>
<line x1="571.5" y1="568.2" x2="580.0" y2="619.5" stroke-width="7.5"/>
</g>
<g fill="#3b2a22" stroke="#3b2a22" stroke-linecap="round" stroke-linejoin="round">
<circle cx="606.0" cy="590.7" r="10.7"/>
<rect x="596.2" y="599.7" width="19.7" height="29.5" rx="7.5"/>
<line x1="602.3" y1="627.6" x2="601.1" y2="662.0" stroke-width="6.1"/>
<line x1="609.7" y1="627.6" x2="610.9" y2="662.0" stroke-width="6.1"/>
<line x1="597.7" y1="603.8" x2="589.6" y2="621.0" stroke-width="4.9"/>
<line x1="614.3" y1="603.8" x2="624.0" y2="637.4" stroke-width="4.9"/>
</g>
<g fill="#3b2a22" stroke="#3b2a22" stroke-linecap="round" stroke-linejoin="round">
<circle cx="980.0" cy="545.0" r="13.0"/>
<rect x="965.7" y="558.0" width="28.6" height="52.0" rx="10.9"/>
<line x1="974.1" y1="607.4" x2="972.2" y2="662.0" stroke-width="9.8"/>
<line x1="985.9" y1="607.4" x2="987.8" y2="662.0" stroke-width="9.8"/>
<line x1="968.0" y1="564.5" x2="961.8" y2="620.4" stroke-width="7.8"/>
<line x1="992.0" y1="564.5" x2="1045.0" y2="571.0" stroke-width="7.8"/>
<path d="M965.0 543.7 A14.3 13.7 0 0 1 995.0 543.7 Z" fill="#ffd84d" stroke="none"/>
<rect x="962.5" y="542.4" width="35.1" height="3.6" rx="1.8" fill="#ffd84d" stroke="none"/>
</g>
<g fill="#3b2a22" stroke="#3b2a22" stroke-linecap="round" stroke-linejoin="round">
<circle cx="1045.0" cy="587.2" r="11.2"/>
<rect x="1034.7" y="596.6" width="20.6" height="31.0" rx="7.8"/>
<line x1="1041.1" y1="625.9" x2="1039.8" y2="662.0" stroke-width="6.5"/>
<line x1="1048.9" y1="625.9" x2="1050.2" y2="662.0" stroke-width="6.5"/>
<line x1="1036.3" y1="600.9" x2="1031.2" y2="631.0" stroke-width="5.2"/>
<line x1="1053.7" y1="600.9" x2="1058.8" y2="631.0" stroke-width="5.2"/>
</g>
<g fill="#3b2a22" stroke="#3b2a22" stroke-linecap="round" stroke-linejoin="round">
<circle cx="1085.0" cy="552.2" r="12.2"/>
<rect x="1071.6" y="564.4" width="26.8" height="48.8" rx="10.2"/>
<line x1="1079.5" y1="610.8" x2="1077.7" y2="662.0" stroke-width="9.2"/>
<line x1="1090.5" y1="610.8" x2="1092.3" y2="662.0" stroke-width="9.2"/>
<line x1="1073.7" y1="570.5" x2="1067.9" y2="620.5" stroke-width="7.3"/>
<line x1="1096.3" y1="570.5" x2="1102.1" y2="620.5" stroke-width="7.3"/>
</g>
<path d="M686 210 Q693.0 201.6 700 210 Q707.0 201.6 714 210" stroke="#56606a" stroke-width="3" fill="none" stroke-linecap="round"/>
<path d="M730 236 Q735.0 230.0 740 236 Q745.0 230.0 750 236" stroke="#56606a" stroke-width="3" fill="none" stroke-linecap="round"/>
<path d="M768 200 Q774.0 192.8 780 200 Q786.0 192.8 792 200" stroke="#56606a" stroke-width="3" fill="none" stroke-linecap="round"/>
<path d="M410 160 Q415.0 154.0 420 160 Q425.0 154.0 430 160" stroke="#56606a" stroke-width="3" fill="none" stroke-linecap="round"/></svg>